<svg width="393" height="852" viewBox="0 0 393 852" fill="none" xmlns="http://www.w3.org/2000/svg">
<rect width="393" height="852" rx="40" fill="black"/>
<rect x="16" y="16" width="361" height="820" rx="30" fill="#FAFAFA"/>
<rect x="69" y="298" width="256" height="256" fill="#FAFAFA"/>
<rect x="179.298" y="332.133" width="31.6734" height="192.517" transform="rotate(24 179.298 332.133)" fill="black"/>
<rect x="181" y="332" width="32" height="32" fill="black"/>
<rect x="213" y="332" width="2" height="2" fill="black"/>
<rect x="179" y="332" width="2" height="2" fill="black"/>
<rect x="185.76" y="345.016" width="31.6842" height="192.506" transform="rotate(-24 185.76 345.016)" fill="black"/>
<path d="M197 402L239.435 508.02H154.565L197 402Z" fill="#20B58B"/>
<rect x="99" y="508" width="196" height="14" fill="#FAFAFA"/>
<rect x="133" y="818" width="128" height="6" rx="3" fill="black"/>
<rect x="149" y="32" width="96" height="24" rx="12" fill="black"/>
</svg>
